<svg id="Layer_1" data-name="Layer 1" xmlns="http://www.w3.org/2000/svg" viewBox="0 0 170.738 162.533"><defs><style>.cls-1{fill:#b82a52;}.cls-2{fill:#f55723;}.cls-3{fill:#fff;}.cls-4{fill:none;stroke:#ed6d54;stroke-miterlimit:10;stroke-width:0.25px;}</style></defs><path class="cls-1" d="M153.342,40.609c-5,0-4.05,7.932-9.053,7.932h-1.755c-2.238,0,5.059.42,3.086-.647-4.994-2.7-.112-4.838-4.27-8.96-3.6-3.567-6.054-5.081-11.2-5.067-5.407.015-10.509-1.757-15.565-3.394A28.483,28.483,0,0,1,102.526,22.7a27.094,27.094,0,0,1-5.126-7.9c-1.257-3.018-3.085-4.738-6.623-4.955-.482-.03-.961-.044-1.438-.05-.156,0-.314,0-.47,0s-.315,0-.471,0c-.477.006-.955.02-1.438.05a26.043,26.043,0,0,0-16.993,7.53,20.758,20.758,0,0,0-4.677,7.339C64.3,27.445,64,28.334,61.5,30.084c-4.121,2.877-10.262,3.242-15.913,2.783a19.179,19.179,0,0,0-16.247,7.378c-2.489,3.4-4.42,6.237-8.4,8.3h-2.5a8.085,8.085,0,0,0-8.086,8.085l-7,88c0,4.466,2.7,16.721,11.086,16.086H159.3a8.086,8.086,0,0,0,8.086-8.086v-99C167.385,49.161,157.807,40.609,153.342,40.609Z"/><path class="cls-2" d="M152.3,40.541h-2.613a26.014,26.014,0,0,1-10.284-8.3c-3.392-4.631-8.809-6.4-16.248-6.378-4.714.013-9.791-.906-13.913-3.783-2.5-1.743-2.693-1.956-3.541-4.626a19.445,19.445,0,0,0-1.531-3.537,21.921,21.921,0,0,0-5-6.034A26.381,26.381,0,0,0,83.777,1.85c-.482-.03-.961-.044-1.438-.05-.156,0-.314,0-.47,0s-.315,0-.471,0c-.477.006-.955.02-1.438.05A26.043,26.043,0,0,0,62.967,9.38a20.758,20.758,0,0,0-4.677,7.339C57.3,19.445,57,20.334,54.5,22.084c-4.121,2.877-10.262,3.242-15.913,2.783a19.179,19.179,0,0,0-16.247,7.378c-2.489,3.4-4.42,6.237-8.4,8.3h-2.5a8.085,8.085,0,0,0-8.086,8.085v96a8.086,8.086,0,0,0,8.086,8.086H152.3a8.086,8.086,0,0,0,8.086-8.086v-96A8.085,8.085,0,0,0,152.3,40.541Z"/><rect class="cls-3" x="22.185" y="57.775" width="119.367" height="77.701" rx="4.058"/><line class="cls-4" x1="22.185" y1="71.724" x2="141.552" y2="71.724"/><line class="cls-4" x1="22.185" y1="88.283" x2="141.552" y2="88.283"/><line class="cls-4" x1="22.185" y1="104.843" x2="141.552" y2="104.843"/><line class="cls-4" x1="22.185" y1="121.403" x2="141.552" y2="121.403"/><path class="cls-2" d="M57.651,118.462q-2.993-3.336-2.992-10.76v-4.833h9.724v6.156q0,3.684,2.359,3.683a2.047,2.047,0,0,0,1.841-.777,4.913,4.913,0,0,0,.519-2.618,11.856,11.856,0,0,0-.577-4,8.755,8.755,0,0,0-1.466-2.647q-.892-1.064-3.193-3.309L59.607,95.1q-4.948-4.834-4.948-10.7,0-6.328,2.906-9.638t8.487-3.308q6.675,0,9.61,3.538T78.6,86.067H68.525l-.055-3.395a2.163,2.163,0,0,0-.548-1.554,2,2,0,0,0-1.524-.575,2.217,2.217,0,0,0-1.727.633A2.469,2.469,0,0,0,64.1,82.9q0,2.416,2.762,5.006l5.754,5.524a32.918,32.918,0,0,1,3.338,3.712,14.607,14.607,0,0,1,2.129,4.142,17.856,17.856,0,0,1,.805,5.668q0,7.308-2.677,11.077t-8.83,3.768Q60.642,121.8,57.651,118.462Z"/><path class="cls-2" d="M84.739,121.339V71.912h9.84V89.577h4.66V71.912h9.839v49.427H99.239V98.9h-4.66v22.441Z"/><path class="cls-3" d="M91.362,53.116a9.655,9.655,0,0,0-18.991.025Z"/><circle class="cls-3" cx="13.569" cy="143.093" r="4.07"/><circle class="cls-3" cx="150.968" cy="143.093" r="4.07"/><circle class="cls-3" cx="150.968" cy="49.071" r="4.07"/><circle class="cls-3" cx="150.968" cy="72.577" r="4.07"/><circle class="cls-3" cx="150.968" cy="96.082" r="4.07"/><circle class="cls-3" cx="150.968" cy="119.588" r="4.07"/><circle class="cls-3" cx="13.569" cy="72.577" r="4.07"/><circle class="cls-3" cx="13.569" cy="96.082" r="4.07"/><circle class="cls-3" cx="13.569" cy="119.588" r="4.07"/><circle class="cls-3" cx="13.569" cy="49.158" r="4.07"/><circle class="cls-3" cx="82.269" cy="143.093" r="4.07"/><circle class="cls-3" cx="60.529" cy="143.093" r="4.07"/><circle class="cls-3" cx="38.789" cy="143.093" r="4.07"/><circle class="cls-3" cx="125.749" cy="143.093" r="4.07"/><circle class="cls-3" cx="104.009" cy="143.093" r="4.07"/><path class="cls-3" d="M66.275,50.809v0L23.9,45.161a3.6,3.6,0,0,0-.873-.117,3.663,3.663,0,0,0,0,7.326L66.1,53.48a1.344,1.344,0,0,0,.174-2.671Z"/><path class="cls-3" d="M68.124,47.172v0L34.737,33.385c-.047-.021-.093-.039-.141-.058l-.159-.066-.006.014a3.652,3.652,0,0,0-2.526,6.851l0,.007.2.053a3.614,3.614,0,0,0,.51.138L67.333,49.73a1.343,1.343,0,0,0,.791-2.558Z"/><path class="cls-3" d="M71.338,44.245l0,0L54.715,30l-.009.012a3.651,3.651,0,1,0-4.312,5.862l-.006.008L69.774,46.37a1.34,1.34,0,0,0,1.564-2.125Z"/><path class="cls-3" d="M74.74,41.954,67.2,27.053l-.014.01a3.65,3.65,0,1,0-5.958,4.12l-.012.009,11.308,12.2a1.343,1.343,0,0,0,2.212-1.436Z"/><path class="cls-3" d="M79.009,40.5,73.1,15.329l-.006-.024-.057-.242-.017,0A4.056,4.056,0,1,0,65.3,17.52l-.011,0,.034.073a4.018,4.018,0,0,0,.193.409L76.461,41.281a1.346,1.346,0,0,0,1.788.651,1.327,1.327,0,0,0,.737-1.429Z"/><path class="cls-3" d="M86.115,11.551a4.249,4.249,0,1,0-8.41.859l2.818,27.74a1.346,1.346,0,1,0,2.691,0l2.814-27.741A4.254,4.254,0,0,0,86.115,11.551Z"/><path class="cls-3" d="M97.459,50.809v0l42.377-5.646a3.6,3.6,0,0,1,.874-.117,3.663,3.663,0,0,1,0,7.326L97.632,53.48a1.344,1.344,0,0,1-.173-2.671Z"/><path class="cls-3" d="M95.61,47.172l0,0L129,33.385c.046-.021.093-.039.14-.058l.16-.066,0,.014a3.652,3.652,0,0,1,2.527,6.851l0,.007-.194.053a3.628,3.628,0,0,1-.511.138L96.4,49.73a1.343,1.343,0,0,1-.791-2.558Z"/><path class="cls-3" d="M92.4,44.245l0,0L109.018,30l.009.012a3.651,3.651,0,1,1,4.312,5.862l.006.008L93.959,46.37A1.34,1.34,0,0,1,92.4,44.245Z"/><path class="cls-3" d="M88.993,41.954l7.539-14.9.014.01a3.65,3.65,0,1,1,5.958,4.12l.012.009-11.307,12.2A1.343,1.343,0,0,1,89,41.956Z"/><path class="cls-3" d="M84.725,40.5l5.906-25.167.006-.024.056-.242.017,0a4.056,4.056,0,1,1,7.722,2.452l.011,0-.035.073a4.011,4.011,0,0,1-.192.409L87.272,41.281a1.346,1.346,0,0,1-1.788.651,1.329,1.329,0,0,1-.737-1.429Z"/></svg>